<svg width="22" height="69" viewBox="0 0 22 69" fill="none" xmlns="http://www.w3.org/2000/svg">
<path d="M14.3002 27.4997L19.8002 21.9997V18.6997H2.2002V21.9997L7.7002 27.4997H14.3002Z" fill="#9B9B9A"/>
<path d="M7.7002 16.5H14.3002V27.5H7.7002V16.5Z" fill="#D0CFCE"/>
<path d="M14.3 27.5L22 36.3V57.2C22 60.1174 20.8411 62.9153 18.7782 64.9782C16.7153 67.0411 13.9174 68.2 11 68.2C8.08262 68.2 5.28473 67.0411 3.22183 64.9782C1.15893 62.9153 0 60.1174 0 57.2V36.3L7.7 27.5H14.3Z" fill="#9B9B9A"/>
<path d="M11 68.2C8.08262 68.2 5.28473 67.0411 3.22183 64.9782C1.15893 62.9153 0 60.1174 0 57.2V36.3L7.7 27.5H14.3L17.6 36.3V57.2C17.6 63.2751 14.6451 68.2 11 68.2Z" fill="#D0CFCE"/>
<path d="M12.1075 51.5622C12.1075 51.7462 12.0468 51.9251 11.9347 52.0711C11.8227 52.2171 11.6656 52.322 11.4878 52.3696C11.3101 52.4172 11.1216 52.4048 10.9516 52.3344C10.7815 52.264 10.6395 52.1394 10.5475 51.98C10.4555 51.8206 10.4187 51.6354 10.4427 51.4529C10.4667 51.2705 10.5503 51.101 10.6804 50.9709C10.8106 50.8408 10.98 50.7572 11.1624 50.7332C11.3449 50.7092 11.5302 50.7461 11.6896 50.8381C11.8167 50.9115 11.9222 51.017 11.9956 51.1441C12.069 51.2712 12.1076 51.4154 12.1075 51.5622Z" fill="black"/>
<path d="M7.92701 51.5625C7.92679 50.9754 8.08121 50.3986 8.37472 49.8901C8.66824 49.3817 9.0905 48.9595 9.59901 48.666L7.92701 45.7695C6.90999 46.3564 6.06548 47.2008 5.47845 48.2177C4.89142 49.2347 4.58258 50.3883 4.58301 51.5625H7.92701Z" fill="black"/>
<path d="M12.9428 54.459C12.4342 54.7521 11.8576 54.9065 11.2705 54.9065C10.6835 54.9065 10.1068 54.7521 9.59827 54.459L7.92627 57.3554C8.94338 57.9418 10.0968 58.2505 11.2708 58.2505C12.4449 58.2505 13.5983 57.9418 14.6154 57.3554L12.9428 54.459Z" fill="black"/>
<path d="M12.9438 48.666C13.4524 48.9595 13.8746 49.3816 14.1682 49.8901C14.4617 50.3986 14.6161 50.9754 14.6158 51.5625H17.9598C17.9604 50.3883 17.6516 49.2348 17.0647 48.2178C16.4778 47.2009 15.6334 46.3565 14.6165 45.7695L12.9438 48.666Z" fill="black"/>
</svg>
