<svg width="23" height="9" viewBox="0 0 23 9" fill="none" xmlns="http://www.w3.org/2000/svg">
<path d="M1.04228 8.46313V7.33685H3.30611C3.70406 7.33685 4.01191 7.21296 4.22966 6.96518C4.44741 6.7174 4.55628 6.43207 4.55628 6.1092C4.55628 5.89146 4.50748 5.68873 4.40987 5.50101C4.31226 5.3133 4.16959 5.16313 3.98188 5.0505C3.79417 4.93787 3.56891 4.88156 3.30611 4.88156H1.04228V3.75527H3.11464C3.45253 3.75527 3.72283 3.66893 3.92556 3.49623C4.1283 3.32353 4.22966 3.06824 4.22966 2.73036C4.22966 2.39247 4.1283 2.13718 3.92556 1.96449C3.72283 1.79179 3.45253 1.70544 3.11464 1.70544H1.04228V0.579157H3.14843C3.68154 0.579157 4.12454 0.676769 4.47744 0.871991C4.83035 1.06721 5.09314 1.31875 5.26584 1.6266C5.43854 1.93445 5.52489 2.26483 5.52489 2.61773C5.52489 3.0307 5.4085 3.39486 5.17574 3.71022C4.95048 4.02558 4.61635 4.28087 4.17335 4.4761L4.27471 4.07063C4.77028 4.27336 5.15697 4.55869 5.43478 4.92661C5.7126 5.29453 5.85151 5.72627 5.85151 6.22183C5.85151 6.62729 5.75014 6.99897 5.54741 7.33685C5.35219 7.67474 5.05936 7.9488 4.66891 8.15904C4.28598 8.36177 3.81294 8.46313 3.2498 8.46313H1.04228ZM0.152519 8.46313V0.579157H1.44774V8.46313H0.152519ZM9.50145 8.57576C8.96084 8.57576 8.47278 8.45563 8.03729 8.21535C7.6093 7.96757 7.26766 7.62969 7.01237 7.2017C6.76459 6.77371 6.6407 6.29316 6.6407 5.76006C6.6407 5.22695 6.76459 4.75016 7.01237 4.32968C7.26015 3.90169 7.59428 3.56381 8.01476 3.31602C8.44275 3.06824 8.91579 2.94435 9.43388 2.94435C9.93695 2.94435 10.38 3.06073 10.7629 3.2935C11.1533 3.52626 11.4574 3.84538 11.6752 4.25084C11.9004 4.6563 12.0131 5.11808 12.0131 5.63617C12.0131 5.72627 12.0056 5.82013 11.9905 5.91774C11.983 6.00784 11.968 6.1092 11.9455 6.22183H7.50793V5.20818H11.3035L10.8417 5.61364C10.8267 5.28326 10.7629 5.00545 10.6503 4.78019C10.5376 4.55493 10.3762 4.38224 10.166 4.2621C9.96323 4.14196 9.71169 4.0819 9.41135 4.0819C9.09599 4.0819 8.82193 4.14947 8.58917 4.28463C8.3564 4.41978 8.1762 4.61125 8.04855 4.85903C7.92091 5.0993 7.85708 5.38838 7.85708 5.72627C7.85708 6.06415 7.92466 6.36074 8.05981 6.61603C8.19497 6.87132 8.38644 7.0703 8.63422 7.21296C8.882 7.34812 9.16732 7.41569 9.49019 7.41569C9.76801 7.41569 10.0233 7.36689 10.2561 7.26928C10.4963 7.17166 10.6991 7.029 10.8643 6.84129L11.6527 7.64095C11.3899 7.9488 11.0707 8.18156 10.6953 8.33924C10.3199 8.49692 9.92193 8.57576 9.50145 8.57576ZM13.6854 8.46313V0.804414H14.9243V8.46313H13.6854ZM12.3902 4.18326V3.05698H16.2196V4.18326H12.3902ZM19.2296 8.57576C18.7416 8.57576 18.2986 8.45187 17.9006 8.20409C17.5102 7.95631 17.1986 7.62218 16.9658 7.2017C16.7405 6.77371 16.6279 6.29692 16.6279 5.77132C16.6279 5.23821 16.7405 4.76142 16.9658 4.34094C17.1986 3.91295 17.5102 3.57507 17.9006 3.32729C18.2986 3.072 18.7416 2.94435 19.2296 2.94435C19.6426 2.94435 20.0068 3.03445 20.3221 3.21466C20.645 3.38736 20.9003 3.62763 21.088 3.93548C21.2757 4.24333 21.3696 4.59248 21.3696 4.98292V6.53719C21.3696 6.92764 21.2757 7.27678 21.088 7.58463C20.9078 7.89249 20.6563 8.13651 20.3334 8.31672C20.0105 8.48941 19.6426 8.57576 19.2296 8.57576ZM19.4324 7.40443C19.8904 7.40443 20.2583 7.2505 20.5361 6.94265C20.8214 6.6348 20.9641 6.2406 20.9641 5.76006C20.9641 5.43719 20.9003 5.15186 20.7726 4.90408C20.645 4.6563 20.4648 4.46483 20.232 4.32968C20.0068 4.18702 19.7402 4.11568 19.4324 4.11568C19.132 4.11568 18.8655 4.18702 18.6327 4.32968C18.4074 4.46483 18.2272 4.6563 18.0921 4.90408C17.9644 5.15186 17.9006 5.43719 17.9006 5.76006C17.9006 6.08292 17.9644 6.36825 18.0921 6.61603C18.2272 6.86381 18.4074 7.05904 18.6327 7.2017C18.8655 7.33685 19.132 7.40443 19.4324 7.40443ZM20.8853 8.46313V7.01023L21.0993 5.69248L20.8853 4.38599V3.05698H22.1242V8.46313H20.8853Z" fill="black"/>
</svg>
